<svg width="24" height="16" viewBox="0 0 24 16" fill="none" xmlns="http://www.w3.org/2000/svg">
<path d="M20.7925 5.52352C21.5825 6.31355 21.5825 7.59444 20.7925 8.38447C20.0024 9.1745 18.7215 9.1745 17.9315 8.38447C17.1415 7.59444 17.1415 6.31355 17.9315 5.52352C18.7215 4.73349 20.0024 4.73349 20.7925 5.52352" stroke="#4A5568" stroke-width="1.5" stroke-linecap="round" stroke-linejoin="round"/>
<path d="M14.2026 1.91236C15.4191 3.12884 15.4191 5.10115 14.2026 6.31764C12.9862 7.53412 11.0139 7.53412 9.79737 6.31764C8.58089 5.10116 8.58089 3.12885 9.79737 1.91236C11.0138 0.69588 12.9862 0.69588 14.2026 1.91236" stroke="#4A5568" stroke-width="1.5" stroke-linecap="round" stroke-linejoin="round"/>
<path d="M6.06846 5.52352C6.85849 6.31355 6.85849 7.59444 6.06846 8.38447C5.27843 9.1745 3.99754 9.1745 3.20751 8.38447C2.41748 7.59444 2.41748 6.31355 3.20751 5.52352C3.99754 4.73349 5.27843 4.73349 6.06846 5.52352" stroke="#4A5568" stroke-width="1.5" stroke-linecap="round" stroke-linejoin="round"/>
<path d="M23 15V13.904C23 12.523 21.881 11.404 20.5 11.404H19.699" stroke="#4A5568" stroke-width="1.5" stroke-linecap="round" stroke-linejoin="round"/>
<path d="M1 15V13.904C1 12.523 2.119 11.404 3.5 11.404H4.301" stroke="#4A5568" stroke-width="1.5" stroke-linecap="round" stroke-linejoin="round"/>
<path d="M17.339 15V13.399C17.339 11.466 15.772 9.899 13.839 9.899H10.16C8.22703 9.899 6.66003 11.466 6.66003 13.399V15" stroke="#4A5568" stroke-width="1.5" stroke-linecap="round" stroke-linejoin="round"/>
</svg>
